<svg width="1200" height="630" viewBox="0 0 1200 630" fill="none" xmlns="http://www.w3.org/2000/svg">
  <rect width="1200" height="630" fill="#4F46E5"/>
  <path d="M600 315C600 371.885 553.885 418 497 418C440.115 418 394 371.885 394 315C394 258.115 440.115 212 497 212C553.885 212 600 258.115 600 315Z" fill="#10B981"/>
  <path d="M806 315C806 371.885 759.885 418 703 418C646.115 418 600 371.885 600 315C600 258.115 646.115 212 703 212C759.885 212 806 258.115 806 315Z" fill="#F59E0B"/>
  <rect x="200" y="480" width="800" height="8" rx="4" fill="white"/>
  <text x="600" y="180" font-family="Arial, sans-serif" font-size="60" font-weight="bold" fill="white" text-anchor="middle">Quiz Funnel</text>
  <text x="600" y="250" font-family="Arial, sans-serif" font-size="30" fill="white" text-anchor="middle">Discover Your Perfect Solution</text>
</svg> 